<svg width="16" height="17" viewBox="0 0 16 17" fill="none" xmlns="http://www.w3.org/2000/svg">
<g id="Frame" clip-path="url(#clip0_575_3446)">
<path id="Vector" d="M3.33325 12.4491C3.33325 12.8027 3.47373 13.1418 3.72378 13.3919C3.97382 13.6419 4.31296 13.7824 4.66659 13.7824C5.02021 13.7824 5.35935 13.6419 5.60939 13.3919C5.85944 13.1418 5.99992 12.8027 5.99992 12.4491C5.99992 12.0954 5.85944 11.7563 5.60939 11.5062C5.35935 11.2562 5.02021 11.1157 4.66659 11.1157C4.31296 11.1157 3.97382 11.2562 3.72378 11.5062C3.47373 11.7563 3.33325 12.0954 3.33325 12.4491Z" stroke="#2C2C2C" stroke-linecap="round" stroke-linejoin="round"/>
<path id="Vector_2" d="M3.33325 4.44906C3.33325 4.80268 3.47373 5.14182 3.72378 5.39187C3.97382 5.64191 4.31296 5.78239 4.66659 5.78239C5.02021 5.78239 5.35935 5.64191 5.60939 5.39187C5.85944 5.14182 5.99992 4.80268 5.99992 4.44906C5.99992 4.09543 5.85944 3.7563 5.60939 3.50625C5.35935 3.2562 5.02021 3.11572 4.66659 3.11572C4.31296 3.11572 3.97382 3.2562 3.72378 3.50625C3.47373 3.7563 3.33325 4.09543 3.33325 4.44906Z" stroke="#2C2C2C" stroke-linecap="round" stroke-linejoin="round"/>
<path id="Vector_3" d="M10 4.44906C10 4.80268 10.1405 5.14182 10.3905 5.39187C10.6406 5.64191 10.9797 5.78239 11.3333 5.78239C11.687 5.78239 12.0261 5.64191 12.2761 5.39187C12.5262 5.14182 12.6667 4.80268 12.6667 4.44906C12.6667 4.09543 12.5262 3.7563 12.2761 3.50625C12.0261 3.2562 11.687 3.11572 11.3333 3.11572C10.9797 3.11572 10.6406 3.2562 10.3905 3.50625C10.1405 3.7563 10 4.09543 10 4.44906Z" stroke="#2C2C2C" stroke-linecap="round" stroke-linejoin="round"/>
<path id="Vector_4" d="M4.66675 5.78271V11.116" stroke="#2C2C2C" stroke-linecap="round" stroke-linejoin="round"/>
<path id="Vector_5" d="M6 12.4494H10C10.3536 12.4494 10.6928 12.3089 10.9428 12.0589C11.1929 11.8088 11.3333 11.4697 11.3333 11.116V7.78271" stroke="#2C2C2C" stroke-linecap="round" stroke-linejoin="round"/>
<path id="Vector_6" d="M9.33325 9.78271L11.3333 7.78271L13.3333 9.78271" stroke="#2C2C2C" stroke-linecap="round" stroke-linejoin="round"/>
</g>
<defs>
<clipPath id="clip0_575_3446">
<rect width="16" height="16" fill="white" transform="translate(0 0.449219)"/>
</clipPath>
</defs>
</svg>
