<svg width="16" height="16" viewBox="0 0 16 16" fill="none" xmlns="http://www.w3.org/2000/svg">
<g id="Linear / Like / Like">
<path id="Vector" d="M13.9834 8.12314L13.4908 8.03793L13.9834 8.12314ZM13.5131 10.843L13.0204 10.7578L13.5131 10.843ZM4.62518 13.6511L4.12704 13.6941L4.62518 13.6511ZM4.08374 7.38928L4.58188 7.3462L4.08374 7.38928ZM9.32997 3.48062L9.82339 3.56147V3.56147L9.32997 3.48062ZM8.88818 6.177L9.38161 6.25784V6.25784L8.88818 6.177ZM4.46543 6.45133L4.13903 6.07256L4.13903 6.07256L4.46543 6.45133ZM5.42459 5.6248L5.75098 6.00357H5.75098L5.42459 5.6248ZM7.01204 3.18884L6.52805 3.06329V3.06329L7.01204 3.18884ZM7.32917 1.96627L7.81316 2.09181V2.09181L7.32917 1.96627ZM8.44506 1.37591L8.29214 1.85195L8.29214 1.85195L8.44506 1.37591ZM8.54171 1.40696L8.69464 0.930919L8.69464 0.930918L8.54171 1.40696ZM6.57463 4.30808L7.01566 4.54367L6.57463 4.30808ZM9.26979 2.16469L8.78581 2.29024V2.29024L9.26979 2.16469ZM7.7828 1.42127L7.56575 0.970838V0.970838L7.7828 1.42127ZM2.64773 14.3135L2.14959 14.3566L2.64773 14.3135ZM2 6.82248L2.49814 6.7794C2.47507 6.51264 2.24595 6.3114 1.97844 6.32294C1.71093 6.33448 1.5 6.55472 1.5 6.82248H2ZM13.4908 8.03793L13.0204 10.7578L14.0058 10.9282L14.4761 8.20834L13.4908 8.03793ZM8.82998 14.1663H5.7309V15.1663H8.82998V14.1663ZM5.12332 13.608L4.58188 7.3462L3.5856 7.43235L4.12704 13.6941L5.12332 13.608ZM13.0204 10.7578C12.6825 12.7115 10.9209 14.1663 8.82998 14.1663V15.1663C11.3808 15.1663 13.5805 13.387 14.0058 10.9282L13.0204 10.7578ZM8.83655 3.39978L8.39476 6.09615L9.38161 6.25784L9.82339 3.56147L8.83655 3.39978ZM4.79182 6.8301L5.75098 6.00357L5.09819 5.24603L4.13903 6.07256L4.79182 6.8301ZM7.49602 3.31438L7.81316 2.09181L6.84519 1.84072L6.52805 3.06329L7.49602 3.31438ZM8.29214 1.85195L8.38878 1.883L8.69464 0.930918L8.59799 0.899871L8.29214 1.85195ZM7.01566 4.54367C7.22363 4.15433 7.38511 3.74194 7.49602 3.31438L6.52805 3.06329C6.43715 3.41372 6.30466 3.75229 6.13361 4.0725L7.01566 4.54367ZM8.38878 1.883C8.59306 1.94862 8.73812 2.1064 8.78581 2.29024L9.75377 2.03914C9.6168 1.51114 9.21264 1.09733 8.69464 0.930919L8.38878 1.883ZM7.81316 2.09181C7.8365 2.00181 7.9015 1.91909 7.99985 1.8717L7.56575 0.970838C7.21109 1.14174 6.94468 1.45719 6.84519 1.84072L7.81316 2.09181ZM7.99985 1.8717C8.08968 1.82841 8.19543 1.82088 8.29214 1.85195L8.59799 0.899871C8.25817 0.790705 7.88748 0.815806 7.56575 0.970838L7.99985 1.8717ZM9.43579 7.32248H12.8899V6.32248H9.43579V7.32248ZM3.14587 14.2704L2.49814 6.7794L1.50186 6.86555L2.14959 14.3566L3.14587 14.2704ZM2.5 14.3415V6.82248H1.5V14.3415H2.5ZM2.14959 14.3566C2.1408 14.2549 2.22097 14.1663 2.32447 14.1663V15.1663C2.80846 15.1663 3.18748 14.7516 3.14587 14.2704L2.14959 14.3566ZM9.82339 3.56147C9.90641 3.05472 9.8827 2.53619 9.75377 2.03914L8.78581 2.29024C8.87978 2.6525 8.89706 3.03043 8.83655 3.39978L9.82339 3.56147ZM5.7309 14.1663C5.41496 14.1663 5.15068 13.9243 5.12332 13.608L4.12704 13.6941C4.19901 14.5265 4.89513 15.1663 5.7309 15.1663V14.1663ZM5.75098 6.00357C6.20422 5.61301 6.69277 5.14812 7.01566 4.54367L6.13361 4.0725C5.90269 4.50479 5.535 4.86963 5.09819 5.24603L5.75098 6.00357ZM14.4761 8.20834C14.6463 7.22402 13.8894 6.32248 12.8899 6.32248V7.32248C13.2676 7.32248 13.5555 7.66361 13.4908 8.03793L14.4761 8.20834ZM2.32447 14.1663C2.42195 14.1663 2.5 14.2453 2.5 14.3415H1.5C1.5 14.7965 1.86859 15.1663 2.32447 15.1663V14.1663ZM8.39476 6.09615C8.28959 6.73805 8.78438 7.32248 9.43579 7.32248V6.32248C9.40254 6.32248 9.37595 6.29235 9.38161 6.25784L8.39476 6.09615ZM4.58188 7.3462C4.56493 7.15022 4.64317 6.9582 4.79182 6.8301L4.13903 6.07256C3.74681 6.41055 3.541 6.91654 3.5856 7.43235L4.58188 7.3462Z" fill="#131923"/>
</g>
</svg>
